<svg xmlns="http://www.w3.org/2000/svg" width="180" height="29" fill="none" viewBox="0 0 180 29"><path fill="#46d9e8" fill-rule="evenodd" d="M136.173 13.876a7.7 7.7 0 0 0-.15-1.572 4.9 4.9 0 0 0-.539-1.55 3.55 3.55 0 0 0-1.14-1.184 4.25 4.25 0 0 0-3.876 0 3.34 3.34 0 0 0-1.142 1.184 4.5 4.5 0 0 0-.539 1.55 10 10 0 0 0-.15 1.572c0 .537.044 1.075.15 1.614.088.54.28 1.078.539 1.549.279.474.668.884 1.142 1.163a4.38 4.38 0 0 0 3.876 0c.471-.28.881-.689 1.14-1.163a4.4 4.4 0 0 0 .539-1.55c.106-.514.15-1.054.15-1.613m4.435 3.552c0 .194.085.365.215.516a.7.7 0 0 0 .474.259h.259v3.53h-2.691c-.238 0-.454-.064-.669-.15a2.2 2.2 0 0 1-1.183-1.054 1.5 1.5 0 0 1-.216-.82v-.408a5.16 5.16 0 0 1-2.046 2.089 5.9 5.9 0 0 1-2.884.753 8.6 8.6 0 0 1-2.951-.495 6.6 6.6 0 0 1-2.368-1.508 7.1 7.1 0 0 1-1.593-2.583 10.7 10.7 0 0 1-.58-3.681 9.5 9.5 0 0 1 .666-3.682 7.6 7.6 0 0 1 1.766-2.562 7.8 7.8 0 0 1 2.54-1.528 8.6 8.6 0 0 1 3.036-.497c.409 0 .839.043 1.228.152.43.085.839.236 1.248.408.389.173.754.387 1.099.624q.486.324.839.776V5.995h3.767zm8.433-11.39h2.562v2.95h-2.562v7.125c0 .174.021.345.021.519.023.194.088.365.194.538.129.193.301.345.517.43.302.13.646.194.97.171h.752v4.135c-.107 0-.216 0-.323.021-.108.023-.237.023-.387.023-.28 0-.581 0-.883-.023-.302-.02-.667-.02-1.055-.02a3.6 3.6 0 0 1-2.843-1.294c-.731-.86-1.098-2.108-1.098-3.767V8.99h-2.13V6.04h2.13V.548h4.135zm14.74 6.288a4.4 4.4 0 0 0-.41-1.573 3.2 3.2 0 0 0-.775-1.013 2.65 2.65 0 0 0-.968-.536 4.2 4.2 0 0 0-1.034-.174c-.989 0-1.723.303-2.26.863-.538.56-.839 1.399-.968 2.433zm4.07 4.8a7 7 0 0 1-1.164 2.369 6.9 6.9 0 0 1-1.699 1.55 7 7 0 0 1-1.982.84 8.2 8.2 0 0 1-2.045.258c-1.033 0-2.09-.128-3.079-.43a5.86 5.86 0 0 1-2.477-1.42 7 7 0 0 1-1.658-2.65c-.407-1.097-.601-2.454-.601-4.069 0-.323.02-.732.064-1.248.065-.56.172-1.12.345-1.658a8.6 8.6 0 0 1 .775-1.787 5.7 5.7 0 0 1 1.334-1.615 6.4 6.4 0 0 1 2.067-1.184 8.5 8.5 0 0 1 2.928-.453c.819 0 1.658.13 2.456.345.881.236 1.699.69 2.389 1.292a7.1 7.1 0 0 1 1.808 2.627c.474 1.12.71 2.583.71 4.37v.731h-10.765c.021.368.086.733.151 1.099.087.453.259.883.495 1.27a3.05 3.05 0 0 0 1.098 1.056c.474.28 1.142.43 1.96.43a3.3 3.3 0 0 0 1.635-.43 1.92 1.92 0 0 0 1.013-1.292zm2.856-6.736a.7.7 0 0 0-.236-.539.8.8 0 0 0-.538-.257h-.195V6.042h2.391c.301 0 .58.065.86.172.301.108.58.28.819.473.236.194.451.43.601.71.152.237.259.54.259.82v.538h.065c.215-.389.453-.777.689-1.164.236-.364.539-.71.86-.99a4 4 0 0 1 1.163-.711 4.1 4.1 0 0 1 1.616-.257c.128 0 .257 0 .387.02.129.021.259.021.388.045v4.176a2.7 2.7 0 0 0-.582-.065h-.602a4.6 4.6 0 0 0-1.938.345 2.92 2.92 0 0 0-1.701 2.088 5.4 5.4 0 0 0-.151 1.312v8.158h-4.155zM125.372.247l-6.05 21.487h-4.243c-.365-1.723-3.142-15.824-3.272-16.513h-.065s-2.906 14.704-3.272 16.513h-4.134L98.306.247h4.739l3.381 15.803h.065c.106-.56 2.368-12.703 2.948-15.48h4.694c.41 1.938 3.079 15.029 3.143 15.48h.065c.065-.345 3.401-15.803 3.401-15.803z" clip-rule="evenodd"/><path fill="#0a28c8" fill-rule="evenodd" d="M10.364 5.112h.067l2.668 8.484h-5.49zM7.609.268.246 21.713h4.65l1.509-4.414h7.922l1.355 4.414h4.673L13.014.268zM77.141.57h-4.135v5.468h-2.13v2.95h2.13v7.858c0 1.658.368 2.908 1.099 3.768a3.62 3.62 0 0 0 2.842 1.292c.388 0 .754 0 1.055.021.302.023.603.023.883.023.13 0 .259 0 .388-.023.13-.02.216-.02.321-.02v-4.135h-.774a2.1 2.1 0 0 1-.969-.172 1.13 1.13 0 0 1-.516-.43 1.16 1.16 0 0 1-.194-.539c-.02-.172-.02-.344-.02-.517V8.987h2.562V6.038H77.12V.569zM26.612 5.414c0-.324 0-.58.021-.818 0-.195.065-.387.173-.54a.77.77 0 0 1 .43-.3c.28-.065.56-.107.82-.086h1.139V.333a6 6 0 0 0-.73-.043c-.304 0-.775-.021-1.38-.021-1.42 0-2.54.344-3.359 1.01-.816.669-1.248 1.832-1.248 3.466v1.272h-2.283v2.948h2.283v6.868h-.021v.992l-.13 4.887c.044 0 .086-.021.13-.021h4.134V8.966h2.692v-2.95h-2.67z" clip-rule="evenodd"/><path fill="#0a28c8" fill-rule="evenodd" d="M35.331 5.414c0-.324 0-.58.021-.818 0-.195.065-.387.173-.54a.77.77 0 0 1 .43-.3c.28-.065.54-.107.82-.086h1.14V.333a6 6 0 0 0-.732-.043c-.302 0-.774-.021-1.377-.021-1.423 0-2.541.344-3.36 1.01-.817.669-1.249 1.832-1.249 3.466v1.272h-2.282v2.948h2.261v6.868h-.02v1.034l-.13 4.868c.041 0 .085-.023.13-.023h4.132V8.989h2.691V6.038H35.31v-.624zm4.902 16.32h4.135V6.102h-4.135zm21.738-10.85a5.4 5.4 0 0 0-.43-2.259 4.7 4.7 0 0 0-1.163-1.637 4.5 4.5 0 0 0-1.723-.99 6.6 6.6 0 0 0-2.152-.344 4.95 4.95 0 0 0-1.938.323c-.495.192-.97.45-1.378.796-.345.28-.666.624-.925.99-.195.279-.366.56-.54.862v-.539c0-.238-.064-.495-.17-.71a2.6 2.6 0 0 0-.433-.647 2.6 2.6 0 0 0-.58-.495 1.2 1.2 0 0 0-.669-.194h-3.292v3.531h.41c.214 0 .408.129.538.303.15.15.235.364.256.58V21.67h4.135v-8.933c0-1.206.3-2.11.925-2.712a3.2 3.2 0 0 1 2.326-.904 3.1 3.1 0 0 1 1.508.321c.344.195.624.475.816.797.174.302.28.646.303.991.021.345.042.69.042.969v9.471h4.155l-.02-4.37zm30.191-4.91L88.932 17.6h-.065L85.574 6.04H81.44l5.254 16.318a4.6 4.6 0 0 1-.39 1.272c-.127.28-.32.516-.558.69-.237.15-.496.256-.775.279a8 8 0 0 1-1.011.065l-1.378-.11v3.488h2.453a8.3 8.3 0 0 0 2.197-.214 2.9 2.9 0 0 0 1.464-.905 7.4 7.4 0 0 0 1.163-1.98c.345-.862.774-2.023 1.27-3.466l5.103-15.481zM42.257.656a2.27 2.27 0 0 0-1.658.689 2.25 2.25 0 0 0-.69 1.679 2.35 2.35 0 0 0 2.348 2.347 2.24 2.24 0 0 0 1.679-.69 2.27 2.27 0 0 0 .689-1.657c0-1.29-1.034-2.368-2.347-2.368zM64.53 21.734h4.135V6.102h-4.134zM66.513.656c-1.293 0-2.348 1.077-2.348 2.368 0 1.292 1.078 2.347 2.368 2.347 1.293 0 2.327-1.055 2.348-2.347 0-1.29-1.034-2.368-2.347-2.368z" clip-rule="evenodd"/></svg>