<svg xmlns="http://www.w3.org/2000/svg" xml:space="preserve" viewBox="0 0 354.368 47.798"><path d="M342.973 47.798c7.623 0 11.395-3.113 11.395-8.679v-.211c0-4.036-2.294-6.779-7.544-7.36l-6.911-.738c-2.005-.211-2.98-1.24-2.98-3.06v-1.61c0-.606.395-.975.975-.975h8.943c.606 0 .975.37.975.976v2.98H354c-.37-5.67-4.141-8.625-11.66-8.625-7.122 0-11.184 2.77-11.184 8.257v.105c0 3.983 2.612 6.858 6.753 7.28l7.808.792c2.005.21 2.902 1.24 2.902 3.165V42.1c0 .58-.37.95-.95.95h-9.602c-.58 0-.976-.37-.976-.95v-2.981h-6.41c.158 5.566 4.458 8.679 12.293 8.679M320.445 18.28h6.727v-6.463h-6.727zm.106 28.99h6.516V21.023h-6.516zm-11.567 0h6.516V11.817h-6.516zm-11.356-21.13v5.91h-9.84c-5.17 0-8.308 2.848-8.308 7.57 0 5.382 4.194 8.178 9.813 8.178 3.824 0 6.964-1.504 8.336-4.749h-10.473c-.58 0-.976-.369-.976-.95v-6.304h11.449V47.27h6.515V28.805c0-5.592-4.59-8.309-11.448-8.309-7.07 0-12.346 3.007-12.451 8.916h5.935V26.14c0-.607.395-.976.976-.976h9.523c.58 0 .95.37.95.976m-36.589-8.15h5.038l4.142-6.173h-7.202zm-3.64 14.06v-5.91c0-.606.37-.975.95-.975h10.841c.607 0 .976.37.976.976v5.909zm6.594 15.748c7.281 0 11.475-4.195 12.477-9.18h-6.489V42.1c0 .58-.369.95-.95.95H258.35c-.58 0-.95-.37-.95-.95v-6.305h19.23v-2.374c0-3.666-.896-6.832-2.743-9.047-2.136-2.559-5.776-3.878-10.024-3.878-4.378 0-8.045 1.266-10.314 3.825-2.004 2.321-2.98 5.592-2.98 9.654v.343c0 4.089.976 7.28 2.98 9.575 2.322 2.586 5.936 3.905 10.446 3.905m-44.067-.528h6.204v-12.9c0-.58.369-.949.95-.949h11.312l5.46 13.849h6.6l-5.936-14.851c-1.002-2.506-1.846-3.535-3.43-3.93-.712-.185-1.556-.238-2.637-.238h-11.37c-.58 0-.95-.37-.95-.95V16.989h13.982c.58 0 .976.369.976.95v10.55c5.329-1.925 6.753-4.668 6.753-7.965 0-5.435-3.746-8.706-10.604-8.706h-17.31zm-15.307.528c7.623 0 11.395-3.113 11.395-8.679v-.211c0-4.036-2.294-6.779-7.544-7.36l-6.911-.738c-2.005-.211-2.98-1.24-2.98-3.06v-1.61c0-.606.394-.975.975-.975h8.943c.606 0 .975.37.975.976v2.98h6.173c-.37-5.67-4.141-8.625-11.66-8.625-7.122 0-11.184 2.77-11.184 8.257v.105c0 3.983 2.612 6.858 6.753 7.28l7.808.792c2.005.21 2.902 1.24 2.902 3.165V42.1c0 .58-.37.95-.95.95h-9.602c-.58 0-.976-.37-.976-.95v-2.981h-6.41c.158 5.566 4.458 8.679 12.293 8.679m-39.78-.528h6.516V21.023h-6.515zm17.305-20.523V47.27h6.516V28.04c0-4.537-3.218-7.491-8.679-7.491-4.326 0-7.201 1.873-8.625 5.25h9.839c.58 0 .95.368.95.948m-28.754-8.467h6.727v-6.463h-6.727zm.106 28.99h6.515V21.023H153.5zm-20.812-14.086 10.736 14.086h7.465l-10.683-13.822c-.264-.37-.264-.739.052-1.108l10.525-11.316h-7.043zm0-21.367h-6.516V47.27h6.515zm-16.724 1.504h-6.49v6.674c0 .633-.369 1.029-.975 1.029h-3.852v4.484h4.827v14.85c0 4.432 2.638 6.912 7.202 6.912h5.592v-4.616h-5.355c-.58 0-.95-.37-.95-.95V25.508h6.305v-4.484h-6.304zM99.525 47.27h7.017L95.41 14.43c-.686-1.979-1.583-2.613-3.218-2.613h-6.964c-1.557 0-2.4.634-3.087 2.612L70.904 47.27h6.858l3.112-10.05H96.42zm-17.05-15.22 6.182-19.969 6.167 19.969zM11.817 11.817C11.817 5.291 17.108 0 23.635 0h11.817v11.817zm59.087 0V0H59.087C52.56 0 47.269 5.29 47.269 11.817zM0 23.635v11.817h11.817V11.817C5.291 11.817 0 17.108 0 23.635M23.635 47.27c6.526 0 11.817-5.291 11.817-11.818H11.817V47.27zm23.634 0V11.816H35.452v23.635c0 6.527 5.29 11.818 11.817 11.818" style="fill:#192d38"/></svg>